<svg width="48" height="48" viewBox="0 0 48 48" fill="none" xmlns="http://www.w3.org/2000/svg">
<circle cx="24" cy="24" r="23.5" stroke="#AEAEAE"/>
<path fill-rule="evenodd" clip-rule="evenodd" d="M19.1204 28.9415C18.9416 29.2258 18.9985 29.6084 19.2668 29.8336C19.5596 30.0792 19.9931 30.0445 20.2352 29.7561L27.9388 20.5752L28.5081 26.7045L28.5249 26.8049C28.6045 27.1309 28.9126 27.3618 29.2565 27.335C29.6347 27.3055 29.9129 26.9754 29.8778 26.5976L29.1563 18.8252C29.153 18.7797 29.1452 18.7345 29.1329 18.6903C29.0453 18.3743 28.7414 18.1534 28.4038 18.1811L20.6111 18.822L20.5107 18.8378C20.1853 18.9137 19.9596 19.2188 19.993 19.562C20.0296 19.9396 20.3658 20.2205 20.7439 20.1894L26.8794 19.6848L19.1751 28.8665L19.1204 28.9415Z" fill="#AEAEAE"/>
</svg>
