<svg width="38" height="42" viewBox="0 0 38 42" fill="none" xmlns="http://www.w3.org/2000/svg">
<path fill-rule="evenodd" clip-rule="evenodd" d="M10.62 1H27.382C33.56 1 37 4.56 37 10.66V31.32C37 37.52 33.56 41 27.382 41H10.62C4.54 41 1 37.52 1 31.32V10.66C1 4.56 4.54 1 10.62 1ZM11.16 10.32V10.3H17.138C18 10.3 18.7 11 18.7 11.858C18.7 12.74 18 13.44 17.138 13.44H11.16C10.298 13.44 9.6 12.74 9.6 11.88C9.6 11.02 10.298 10.32 11.16 10.32ZM11.16 22.48H26.84C27.7 22.48 28.4 21.78 28.4 20.92C28.4 20.06 27.7 19.358 26.84 19.358H11.16C10.298 19.358 9.6 20.06 9.6 20.92C9.6 21.78 10.298 22.48 11.16 22.48ZM11.16 31.62H26.84C27.638 31.54 28.24 30.858 28.24 30.06C28.24 29.24 27.638 28.56 26.84 28.48H11.16C10.56 28.42 9.98 28.7 9.66 29.22C9.34 29.72 9.34 30.38 9.66 30.9C9.98 31.4 10.56 31.7 11.16 31.62Z" fill="#FF604A"/>
<path d="M11.16 10.3V9.3H10.16V10.3H11.16ZM11.16 10.32V11.32H12.16V10.32H11.16ZM26.84 31.62V32.62H26.89L26.9397 32.615L26.84 31.62ZM11.16 31.62V30.62H11.0936L11.0278 30.6288L11.16 31.62ZM26.84 28.48L26.9397 27.485L26.89 27.48H26.84V28.48ZM11.16 28.48L11.0605 29.475L11.1101 29.48H11.16V28.48ZM9.66 29.22L10.5023 29.7591L10.507 29.7516L10.5117 29.7441L9.66 29.22ZM9.66 30.9L8.80834 31.4241L8.81297 31.4316L8.81773 31.4391L9.66 30.9ZM27.382 0H10.62V2H27.382V0ZM38 10.66C38 7.4257 37.0852 4.72888 35.2192 2.83977C33.3513 0.94868 30.6617 0 27.382 0V2C30.2803 2 32.3997 2.83132 33.7963 4.24523C35.1948 5.66112 36 7.7943 36 10.66H38ZM38 31.32V10.66H36V31.32H38ZM27.382 42C30.6556 42 33.3468 41.0747 35.2176 39.1894C37.0872 37.3051 38 34.6004 38 31.32H36C36 34.2396 35.1928 36.3749 33.7979 37.7807C32.4042 39.1852 30.2864 40 27.382 40V42ZM10.62 42H27.382V40H10.62V42ZM0 31.32C0 34.608 0.942043 37.3113 2.82289 39.1921C4.70357 41.0728 7.39166 42 10.62 42V40C7.76834 40 5.64643 39.1872 4.23711 37.7779C2.82796 36.3687 2 34.232 2 31.32H0ZM0 10.66V31.32H2V10.66H0ZM10.62 0C7.38559 0 4.69906 0.950672 2.82129 2.837C0.944139 4.72271 0 7.4181 0 10.66H2C2 7.8019 2.82586 5.66729 4.23871 4.248C5.65094 2.82933 7.77441 2 10.62 2V0ZM10.16 10.3V10.32H12.16V10.3H10.16ZM17.138 9.3H11.16V11.3H17.138V9.3ZM19.7 11.858C19.7 10.446 18.5506 9.3 17.138 9.3V11.3C17.4494 11.3 17.7 11.554 17.7 11.858H19.7ZM17.138 14.44C18.5606 14.44 19.7 13.284 19.7 11.858H17.7C17.7 12.196 17.4394 12.44 17.138 12.44V14.44ZM11.16 14.44H17.138V12.44H11.16V14.44ZM8.6 11.88C8.6 13.2914 9.74488 14.44 11.16 14.44V12.44C10.8511 12.44 10.6 12.1885 10.6 11.88H8.6ZM11.16 9.32C9.74488 9.32 8.6 10.4686 8.6 11.88H10.6C10.6 11.5714 10.8511 11.32 11.16 11.32V9.32ZM26.84 21.48H11.16V23.48H26.84V21.48ZM27.4 20.92C27.4 21.2277 27.1477 21.48 26.84 21.48V23.48C28.2523 23.48 29.4 22.3323 29.4 20.92H27.4ZM26.84 20.358C27.146 20.358 27.4 20.6106 27.4 20.92H29.4C29.4 19.5094 28.254 18.358 26.84 18.358V20.358ZM11.16 20.358H26.84V18.358H11.16V20.358ZM10.6 20.92C10.6 20.6098 10.8528 20.358 11.16 20.358V18.358C9.74322 18.358 8.6 19.5102 8.6 20.92H10.6ZM11.16 21.48C10.8511 21.48 10.6 21.2285 10.6 20.92H8.6C8.6 22.3314 9.74488 23.48 11.16 23.48V21.48ZM26.84 30.62H11.16V32.62H26.84V30.62ZM27.24 30.06C27.24 30.3561 27.0155 30.5974 26.7402 30.625L26.9397 32.615C28.2605 32.4826 29.24 31.3599 29.24 30.06H27.24ZM26.7402 29.475C27.0085 29.5019 27.24 29.7347 27.24 30.06H29.24C29.24 28.7453 28.2675 27.6181 26.9397 27.485L26.7402 29.475ZM11.16 29.48H26.84V27.48H11.16V29.48ZM10.5117 29.7441C10.6278 29.5554 10.8356 29.4525 11.0605 29.475L11.2595 27.485C10.2844 27.3875 9.33219 27.8446 8.80834 28.6959L10.5117 29.7441ZM10.5117 30.3759C10.3854 30.1708 10.3966 29.9242 10.5023 29.7591L8.81773 28.6809C8.28343 29.5158 8.29455 30.5892 8.80834 31.4241L10.5117 30.3759ZM11.0278 30.6288C10.846 30.653 10.6315 30.5628 10.5023 30.3609L8.81773 31.4391C9.32855 32.2372 10.274 32.747 11.2922 32.6112L11.0278 30.6288Z" fill="#FEFEFE"/>
</svg>
