<svg width="40" height="42" viewBox="0 0 40 42" fill="none" xmlns="http://www.w3.org/2000/svg">
<path d="M14.2696 38.5467L14.2696 32.4312C14.2696 30.8701 15.5443 29.6046 17.1169 29.6046H22.8652C23.6204 29.6046 24.3446 29.9024 24.8786 30.4325C25.4126 30.9626 25.7125 31.6816 25.7125 32.4312L25.7125 38.5467C25.7078 39.1957 25.9641 39.8198 26.4247 40.2804C26.8854 40.741 27.5121 41 28.1659 41H32.0877C33.9193 41.0047 35.6775 40.2857 36.9743 39.0016C38.2712 37.7175 39 35.974 39 34.1557L39 16.7337C39 15.2649 38.3441 13.8717 37.2092 12.9293L23.8681 2.35174C21.5473 0.497123 18.2222 0.557004 15.9708 2.49396L2.93402 12.9293C1.74548 13.8439 1.0351 15.2413 0.999999 16.7337L0.999999 34.1379C0.999998 37.9277 4.09476 41 7.91235 41H11.7446C13.1025 41 14.206 39.9124 14.2158 38.5645L14.2696 38.5467Z" fill="#FF804A" stroke="#FEFEFE"/>
</svg>
