<svg width="42" height="32" viewBox="0 0 42 32" fill="none" xmlns="http://www.w3.org/2000/svg">
<path fill-rule="evenodd" clip-rule="evenodd" d="M9.22608 1H20.8102C25.6542 1 29.0363 4.33807 29.0363 9.12183V22.8782C29.0363 27.6619 25.6542 31 20.8102 31H9.22608C4.38203 31 1 27.6619 1 22.8782V9.12183C1 4.33807 4.38203 1 9.22608 1ZM36.916 5.75797C37.794 5.31127 38.824 5.35797 39.662 5.88589C40.5 6.41178 41 7.32548 41 8.32447V23.6768C41 24.6778 40.5 25.5894 39.662 26.1153C39.204 26.4016 38.692 26.5478 38.176 26.5478C37.746 26.5478 37.316 26.4463 36.914 26.2412L33.9519 24.7468C32.8559 24.1905 32.1759 23.0737 32.1759 21.8331V10.1661C32.1759 8.92345 32.8559 7.8067 33.9519 7.25442L36.916 5.75797Z" fill="#FF4A75"/>
<path d="M39.662 5.88589L39.129 6.73199L39.1304 6.73292L39.662 5.88589ZM36.916 5.75797L37.3666 6.65066L37.3694 6.64925L36.916 5.75797ZM39.662 26.1153L40.192 26.9633L40.1935 26.9624L39.662 26.1153ZM36.914 26.2412L37.3684 25.3504L37.3644 25.3484L36.914 26.2412ZM33.9519 24.7468L33.4993 25.6385L33.5015 25.6396L33.9519 24.7468ZM33.9519 7.25442L34.4019 8.14744L34.4026 8.1471L33.9519 7.25442ZM20.8102 0H9.22608V2H20.8102V0ZM30.0363 9.12183C30.0363 6.48716 29.1005 4.19239 27.4423 2.55537C25.7851 0.919278 23.4671 0 20.8102 0V2C22.9973 2 24.7924 2.74976 26.0372 3.97864C27.281 5.20659 28.0363 6.97274 28.0363 9.12183H30.0363ZM30.0363 22.8782V9.12183H28.0363V22.8782H30.0363ZM20.8102 32C23.4671 32 25.7851 31.0807 27.4423 29.4446C29.1005 27.8076 30.0363 25.5128 30.0363 22.8782H28.0363C28.0363 25.0273 27.281 26.7934 26.0372 28.0214C24.7924 29.2502 22.9973 30 20.8102 30V32ZM9.22608 32H20.8102V30H9.22608V32ZM0 22.8782C0 25.5128 0.93578 27.8076 2.59397 29.4446C4.25123 31.0807 6.56916 32 9.22608 32V30C7.03896 30 5.24385 29.2502 3.99907 28.0214C2.75524 26.7934 2 25.0273 2 22.8782H0ZM0 9.12183V22.8782H2V9.12183H0ZM9.22608 0C6.56916 0 4.25123 0.919278 2.59397 2.55537C0.93578 4.19239 0 6.48716 0 9.12183H2C2 6.97274 2.75524 5.20659 3.99907 3.97864C5.24385 2.74976 7.03896 2 9.22608 2V0ZM40.195 5.03978C39.0596 4.32454 37.655 4.26 36.4625 4.86669L37.3694 6.64925C37.933 6.36253 38.5883 6.3914 39.129 6.73199L40.195 5.03978ZM42 8.32447C42 6.98693 41.3277 5.75063 40.1935 5.03886L39.1304 6.73292C39.6722 7.07293 40 7.66403 40 8.32447H42ZM42 23.6768V8.32447H40V23.6768H42ZM40.1935 26.9624C41.3274 26.2508 42 25.0167 42 23.6768H40C40 24.3388 39.6726 24.9281 39.1304 25.2683L40.1935 26.9624ZM38.176 27.5478C38.883 27.5478 39.5781 27.347 40.192 26.9633L39.1319 25.2674C38.8298 25.4562 38.501 25.5478 38.176 25.5478V27.5478ZM36.4595 27.132C37.0013 27.4084 37.5869 27.5478 38.176 27.5478V25.5478C37.9051 25.5478 37.6307 25.4842 37.3684 25.3504L36.4595 27.132ZM33.5015 25.6396L36.4635 27.134L37.3644 25.3484L34.4024 23.854L33.5015 25.6396ZM31.1759 21.8331C31.1759 23.4452 32.0629 24.9094 33.4993 25.6385L34.4046 23.8551C33.6489 23.4715 33.1759 22.7022 33.1759 21.8331H31.1759ZM31.1759 10.1661V21.8331H33.1759V10.1661H31.1759ZM33.5019 6.36139C32.0624 7.08678 31.1759 8.5529 31.1759 10.1661H33.1759C33.1759 9.29401 33.6495 8.52662 34.4019 8.14744L33.5019 6.36139ZM36.4653 4.86529L33.5012 6.36173L34.4026 8.1471L37.3666 6.65065L36.4653 4.86529Z" fill="#FEFEFE"/>
</svg>
