<svg width="42" height="42" viewBox="0 0 42 42" fill="none" xmlns="http://www.w3.org/2000/svg">
<path fill-rule="evenodd" clip-rule="evenodd" d="M18.4087 4.03796C17.068 4.03796 15.9275 4.9696 15.6073 6.22529H26.3727C26.0525 4.9696 24.912 4.03796 23.5713 4.03796H18.4087ZM29.4142 6.22529H33.3762C37.5783 6.22529 41 9.68856 41 13.9417C41 13.9417 40.8799 15.7422 40.8399 18.2495C40.8359 18.448 40.7399 18.6424 40.5818 18.7599C39.6193 19.4708 38.7389 20.0581 38.6588 20.0986C35.3372 22.3265 31.4772 23.8941 27.3652 24.6738C27.097 24.7265 26.8329 24.5867 26.6968 24.3477C25.5443 22.3508 23.3912 21.0505 20.99 21.0505C18.6048 21.0505 16.4317 22.3366 15.2451 24.3356C15.1071 24.5705 14.8469 24.7062 14.5808 24.6556C10.5028 23.8738 6.64282 22.3082 3.34117 20.1189L1.42021 18.7822C1.26013 18.6809 1.16008 18.4986 1.16008 18.2961C1.10005 17.2632 1 13.9417 1 13.9417C1 9.68856 4.42171 6.22529 8.62381 6.22529H12.5658C12.946 3.2886 15.4072 1 18.4087 1H23.5713C26.5728 1 29.034 3.2886 29.4142 6.22529ZM40.3197 22.6305L40.2396 22.671C36.1976 25.3849 31.3352 27.1874 26.2326 27.9368C25.5123 28.038 24.7919 27.5722 24.5918 26.8431C24.1516 25.1824 22.7309 24.0887 21.03 24.0887H21.01H20.97C19.2691 24.0887 17.8484 25.1824 17.4082 26.8431C17.2081 27.5722 16.4877 28.038 15.7674 27.9368C10.6648 27.1874 5.8024 25.3849 1.76038 22.671C1.74037 22.6507 1.54027 22.5292 1.38019 22.6305C1.2001 22.7317 1.2001 22.9748 1.2001 22.9748L1.34017 33.3038C1.34017 37.557 4.74187 41 8.94397 41H33.036C37.2381 41 40.6398 37.557 40.6398 33.3038L40.7999 22.9748C40.7999 22.9748 40.7999 22.7317 40.6198 22.6305C40.5198 22.5697 40.3997 22.59 40.3197 22.6305ZM22.4907 31.1165C22.4907 31.9671 21.8304 32.6355 20.99 32.6355C20.1696 32.6355 19.4892 31.9671 19.4892 31.1165V28.5039C19.4892 27.6735 20.1696 26.9849 20.99 26.9849C21.8304 26.9849 22.4907 27.6735 22.4907 28.5039V31.1165Z" fill="#4A72FF"/>
<path d="M15.6073 6.22529L14.6383 5.97823L14.3203 7.22529H15.6073V6.22529ZM26.3727 6.22529V7.22529H27.6596L27.3417 5.97823L26.3727 6.22529ZM29.4142 6.22529L28.4225 6.35368L28.5353 7.22529H29.4142V6.22529ZM41 13.9417L41.9978 14.0082L42 13.975V13.9417H41ZM40.8399 18.2495L41.8397 18.2697L41.8398 18.2655L40.8399 18.2495ZM40.5818 18.7599L41.1759 19.5643L41.1782 19.5626L40.5818 18.7599ZM38.6588 20.0986L38.2073 19.2064L38.1527 19.234L38.1018 19.2681L38.6588 20.0986ZM27.3652 24.6738L27.1789 23.6913L27.1725 23.6925L27.3652 24.6738ZM26.6968 24.3477L27.5659 23.8529L27.5629 23.8478L26.6968 24.3477ZM15.2451 24.3356L14.3852 23.8251L14.383 23.8289L15.2451 24.3356ZM14.5808 24.6556L14.3925 25.6377L14.3939 25.638L14.5808 24.6556ZM3.34117 20.1189L2.77 20.9397L2.77919 20.9461L2.78852 20.9523L3.34117 20.1189ZM1.42021 18.7822L1.99138 17.9614L1.97337 17.9488L1.95481 17.9371L1.42021 18.7822ZM1.16008 18.2961H2.16008V18.2671L2.1584 18.2381L1.16008 18.2961ZM1 13.9417H0V13.9568L0.000453353 13.9718L1 13.9417ZM12.5658 6.22529V7.22529H13.4447L13.5575 6.35368L12.5658 6.22529ZM40.2396 22.671L39.7881 21.7787L39.7332 21.8065L39.6822 21.8408L40.2396 22.671ZM26.2326 27.9368L26.3718 28.9271L26.3779 28.9262L26.2326 27.9368ZM24.5918 26.8431L23.6251 27.0993L23.6275 27.1078L24.5918 26.8431ZM17.4082 26.8431L18.3726 27.1078L18.3748 27.0993L17.4082 26.8431ZM15.7674 27.9368L15.6221 28.9262L15.6282 28.927L15.7674 27.9368ZM1.76038 22.671L1.049 23.3738L1.11958 23.4452L1.20295 23.5012L1.76038 22.671ZM1.38019 22.6305L1.87032 23.5021L1.8929 23.4894L1.91479 23.4756L1.38019 22.6305ZM1.2001 22.9748H0.200008L0.200192 22.9883L1.2001 22.9748ZM1.34017 33.3038H2.34026L2.34008 33.2903L1.34017 33.3038ZM40.6398 33.3038L39.6399 33.2883L39.6398 33.2961V33.3038H40.6398ZM40.7999 22.9748L41.7998 22.9903L41.7999 22.9825V22.9748H40.7999ZM40.6198 22.6305L40.1007 23.4852L40.1151 23.4939L40.1297 23.5021L40.6198 22.6305ZM16.5763 6.47235C16.7872 5.64515 17.5399 5.03796 18.4087 5.03796V3.03796C16.5961 3.03796 15.0677 4.29405 14.6383 5.97823L16.5763 6.47235ZM26.3727 5.22529H15.6073V7.22529H26.3727V5.22529ZM23.5713 5.03796C24.4401 5.03796 25.1928 5.64515 25.4037 6.47235L27.3417 5.97823C26.9123 4.29405 25.3838 3.03796 23.5713 3.03796V5.03796ZM18.4087 5.03796H23.5713V3.03796H18.4087V5.03796ZM33.3762 5.22529H29.4142V7.22529H33.3762V5.22529ZM42 13.9417C42 9.1477 38.1419 5.22529 33.3762 5.22529V7.22529C37.0147 7.22529 40 10.2294 40 13.9417H42ZM41.8398 18.2655C41.8596 17.0237 41.8993 15.9568 41.9339 15.2012C41.9512 14.8235 41.9673 14.5238 41.979 14.3192C41.9848 14.217 41.9896 14.1385 41.9928 14.0859C41.9945 14.0597 41.9957 14.0399 41.9966 14.0268C41.997 14.0203 41.9973 14.0155 41.9975 14.0124C41.9976 14.0108 41.9977 14.0097 41.9977 14.009C41.9978 14.0087 41.9978 14.0084 41.9978 14.0083C41.9978 14.0082 41.9978 14.0082 41.9978 14.0082C41.9978 14.0082 41.9978 14.0082 41.9978 14.0082C41.9978 14.0082 41.9978 14.0082 41 13.9417C40.0022 13.8752 40.0022 13.8752 40.0022 13.8753C40.0022 13.8753 40.0022 13.8753 40.0022 13.8754C40.0022 13.8755 40.0022 13.8756 40.0022 13.8758C40.0022 13.8761 40.0021 13.8765 40.0021 13.877C40.002 13.8781 40.0019 13.8796 40.0018 13.8815C40.0015 13.8854 40.0012 13.891 40.0007 13.8982C39.9998 13.9128 39.9984 13.9341 39.9967 13.962C39.9932 14.0177 39.9883 14.0995 39.9822 14.2052C39.9702 14.4166 39.9537 14.7237 39.936 15.1096C39.9006 15.881 39.8602 16.9681 39.84 18.2336L41.8398 18.2655ZM41.1782 19.5626C41.5966 19.2516 41.8298 18.7619 41.8397 18.2697L39.8401 18.2294C39.8412 18.1756 39.8542 18.1276 39.8751 18.0861C39.8961 18.0444 39.9307 17.9978 39.9853 17.9573L41.1782 19.5626ZM39.1104 20.9909C39.1955 20.9478 39.3266 20.8611 39.4087 20.8068C39.5238 20.7309 39.6766 20.6279 39.8557 20.5049C40.2138 20.2588 40.684 19.9276 41.1759 19.5643L39.9877 17.9555C39.5171 18.3031 39.0658 18.621 38.7231 18.8564C38.5518 18.9742 38.4093 19.0701 38.3067 19.1379C38.1712 19.2273 38.1622 19.2292 38.2073 19.2064L39.1104 20.9909ZM27.5515 25.6563C31.7907 24.8524 35.7777 23.2351 39.2158 20.9291L38.1018 19.2681C34.8966 21.4178 31.1637 22.9357 27.1789 23.6913L27.5515 25.6563ZM25.8278 24.8425C26.1485 25.4058 26.8151 25.8009 27.5579 25.6551L27.1725 23.6925C27.379 23.652 27.5173 23.7676 27.5659 23.853L25.8278 24.8425ZM20.99 22.0505C23.0253 22.0505 24.8525 23.1526 25.8308 24.8476L27.5629 23.8478C26.2361 21.5489 23.7571 20.0505 20.99 20.0505V22.0505ZM16.105 24.846C17.1162 23.1426 18.9669 22.0505 20.99 22.0505V20.0505C18.2427 20.0505 15.7472 21.5306 14.3852 23.8251L16.105 24.846ZM14.3939 25.638C15.1255 25.7772 15.7824 25.3951 16.1073 24.8422L14.383 23.8289C14.4317 23.7459 14.5683 23.6353 14.7677 23.6732L14.3939 25.638ZM2.78852 20.9523C6.20441 23.2174 10.189 24.8319 14.3925 25.6377L14.7691 23.6735C10.8165 22.9158 7.08123 21.3991 3.89382 19.2855L2.78852 20.9523ZM0.849036 19.603L2.77 20.9397L3.91234 19.2981L1.99138 17.9614L0.849036 19.603ZM0.16008 18.2961C0.16008 18.8276 0.42418 19.3354 0.885607 19.6273L1.95481 17.9371C2.09608 18.0264 2.16008 18.1697 2.16008 18.2961H0.16008ZM1 13.9417C0.000453353 13.9718 0.000453889 13.9718 0.000454783 13.9719C0.000455558 13.9719 0.00045681 13.9719 0.000458419 13.972C0.000461638 13.9721 0.000466406 13.9722 0.000472665 13.9725C0.000485122 13.9729 0.000503659 13.9735 0.000528157 13.9743C0.000577211 13.9759 0.000650108 13.9783 0.000746429 13.9815C0.000939012 13.9879 0.00122505 13.9973 0.00160033 14.0097C0.00235081 14.0343 0.00345814 14.0706 0.00488812 14.1172C0.00774795 14.2102 0.0118987 14.3443 0.0170666 14.5083C0.027401 14.8364 0.0418098 15.2847 0.0581025 15.7654C0.0904871 16.721 0.130899 17.823 0.161765 18.3541L2.1584 18.2381C2.12923 17.7363 2.0896 16.6611 2.05695 15.6977C2.04073 15.219 2.02638 14.7723 2.01608 14.4453C2.01093 14.2819 2.00679 14.1483 2.00394 14.0557C2.00252 14.0094 2.00142 13.9733 2.00068 13.9489C2.0003 13.9366 2.00002 13.9273 1.99983 13.921C1.99974 13.9179 1.99966 13.9155 1.99962 13.9139C1.99959 13.9132 1.99958 13.9126 1.99956 13.9122C1.99956 13.912 1.99955 13.9118 1.99955 13.9117C1.99955 13.9117 1.99955 13.9117 1.99955 13.9116C1.99955 13.9116 1.99955 13.9116 1 13.9417ZM8.62381 5.22529C3.85808 5.22529 0 9.1477 0 13.9417H2C2 10.2294 4.98534 7.22529 8.62381 7.22529V5.22529ZM12.5658 5.22529H8.62381V7.22529H12.5658V5.22529ZM18.4087 0C14.8791 0 12.0155 2.68737 11.5741 6.0969L13.5575 6.35368C13.8765 3.88982 15.9353 2 18.4087 2V0ZM23.5713 0H18.4087V2H23.5713V0ZM30.4059 6.0969C29.9645 2.68737 27.1009 0 23.5713 0V2C26.0447 2 28.1035 3.88982 28.4225 6.35368L30.4059 6.0969ZM40.6912 23.5632L40.7712 23.5227L39.8681 21.7382L39.7881 21.7787L40.6912 23.5632ZM26.3779 28.9262C31.614 28.1572 36.62 26.3058 40.7971 23.5012L39.6822 21.8408C35.7752 24.464 31.0564 26.2176 26.0873 26.9474L26.3779 28.9262ZM23.6275 27.1078C23.9597 28.3183 25.1499 29.0988 26.3718 28.927L26.0934 26.9465C25.8746 26.9773 25.6241 26.8262 25.5561 26.5785L23.6275 27.1078ZM21.03 25.0887C22.2742 25.0887 23.3004 25.8741 23.6252 27.0993L25.5584 26.5869C25.0027 24.4906 23.1875 23.0887 21.03 23.0887V25.0887ZM21.01 25.0887H21.03V23.0887H21.01V25.0887ZM20.97 25.0887H21.01V23.0887H20.97V25.0887ZM18.3748 27.0993C18.6996 25.8741 19.7258 25.0887 20.97 25.0887V23.0887C18.8125 23.0887 16.9973 24.4906 16.4416 26.5869L18.3748 27.0993ZM15.6282 28.927C16.8501 29.0988 18.0403 28.3183 18.3725 27.1078L16.4439 26.5785C16.3759 26.8262 16.1254 26.9773 15.9066 26.9465L15.6282 28.927ZM1.20295 23.5012C5.38001 26.3058 10.386 28.1572 15.6221 28.9262L15.9127 26.9474C10.9436 26.2176 6.22479 24.464 2.31781 21.8408L1.20295 23.5012ZM1.91479 23.4756C1.66101 23.6361 1.42299 23.5876 1.35389 23.5683C1.3108 23.5563 1.27682 23.5413 1.24966 23.527C1.23552 23.5195 1.21729 23.5092 1.19539 23.4948C1.18458 23.4877 1.16874 23.4769 1.14969 23.4624C1.13677 23.4526 1.09605 23.4214 1.049 23.3738L2.47176 21.9682C2.35111 21.846 2.2164 21.7757 2.18043 21.7568C2.10512 21.7172 2.00736 21.6743 1.89174 21.642C1.67756 21.5822 1.25945 21.5236 0.845587 21.7854L1.91479 23.4756ZM1.2001 22.9748C2.2001 22.9748 2.2001 22.9751 2.2001 22.9755C2.2001 22.9756 2.2001 22.976 2.2001 22.9762C2.2001 22.9767 2.2001 22.9772 2.2001 22.9776C2.20009 22.9786 2.20009 22.9795 2.20008 22.9805C2.20007 22.9823 2.20006 22.9841 2.20003 22.9859C2.19999 22.9895 2.19993 22.993 2.19985 22.9964C2.19968 23.0031 2.19944 23.0094 2.19913 23.0155C2.19852 23.0274 2.1976 23.0388 2.19631 23.0499C2.19396 23.0703 2.18939 23.0988 2.17868 23.1337C2.16198 23.1882 2.09226 23.3773 1.87032 23.5021L0.89006 21.7588C0.488035 21.9849 0.328264 22.3462 0.266545 22.5474C0.233326 22.6558 0.217497 22.7514 0.209516 22.8205C0.205413 22.856 0.203086 22.8872 0.20177 22.9128C0.201108 22.9257 0.200692 22.9373 0.200441 22.9477C0.200315 22.9528 0.20023 22.9577 0.200176 22.9622C0.200149 22.9645 0.20013 22.9666 0.200118 22.9687C0.200112 22.9698 0.200107 22.9708 0.200104 22.9718C0.200103 22.9723 0.200102 22.9728 0.200101 22.9733C0.200101 22.9736 0.2001 22.9739 0.2001 22.974C0.2001 22.9744 0.2001 22.9748 1.2001 22.9748ZM2.34008 33.2903L2.20001 22.9612L0.200192 22.9883L0.340262 33.3174L2.34008 33.2903ZM8.94397 40C5.3055 40 2.34017 37.0161 2.34017 33.3038H0.34017C0.34017 38.0978 4.17824 42 8.94397 42V40ZM33.036 40H8.94397V42H33.036V40ZM39.6398 33.3038C39.6398 37.0161 36.6745 40 33.036 40V42C37.8018 42 41.6398 38.0978 41.6398 33.3038H39.6398ZM39.8 22.9593L39.6399 33.2883L41.6397 33.3193L41.7998 22.9903L39.8 22.9593ZM40.1297 23.5021C39.9077 23.3773 39.838 23.1882 39.8213 23.1337C39.8106 23.0988 39.806 23.0703 39.8037 23.0499C39.8024 23.0388 39.8015 23.0274 39.8009 23.0155C39.8006 23.0094 39.8003 23.0031 39.8002 22.9964C39.8001 22.993 39.8 22.9895 39.8 22.9859C39.7999 22.9841 39.7999 22.9823 39.7999 22.9805C39.7999 22.9795 39.7999 22.9786 39.7999 22.9776C39.7999 22.9772 39.7999 22.9767 39.7999 22.9762C39.7999 22.976 39.7999 22.9756 39.7999 22.9755C39.7999 22.9751 39.7999 22.9748 40.7999 22.9748C41.7999 22.9748 41.7999 22.9744 41.7999 22.974C41.7999 22.9739 41.7999 22.9736 41.7999 22.9733C41.7999 22.9728 41.7999 22.9723 41.7999 22.9718C41.7999 22.9708 41.7999 22.9698 41.7999 22.9687C41.7999 22.9666 41.7999 22.9645 41.7998 22.9622C41.7998 22.9577 41.7997 22.9528 41.7996 22.9477C41.7993 22.9373 41.7989 22.9257 41.7982 22.9128C41.7969 22.8872 41.7946 22.856 41.7905 22.8205C41.7825 22.7514 41.7667 22.6558 41.7335 22.5474C41.6717 22.3462 41.512 21.9849 41.1099 21.7588L40.1297 23.5021ZM40.7712 23.5227C40.6995 23.559 40.6129 23.5864 40.5104 23.5913C40.4019 23.5966 40.2512 23.5766 40.1007 23.4852L41.1389 21.7757C40.6393 21.4724 40.1293 21.6061 39.8681 21.7382L40.7712 23.5227ZM20.99 33.6355C22.394 33.6355 23.4907 32.508 23.4907 31.1165H21.4907C21.4907 31.4263 21.2668 31.6355 20.99 31.6355V33.6355ZM18.4892 31.1165C18.4892 32.5167 19.6146 33.6355 20.99 33.6355V31.6355C20.7246 31.6355 20.4892 31.4175 20.4892 31.1165H18.4892ZM18.4892 28.5039V31.1165H20.4892V28.5039H18.4892ZM20.99 25.9849C19.606 25.9849 18.4892 27.1326 18.4892 28.5039H20.4892C20.4892 28.2144 20.7332 27.9849 20.99 27.9849V25.9849ZM23.4907 28.5039C23.4907 27.1414 22.4027 25.9849 20.99 25.9849V27.9849C21.2582 27.9849 21.4907 28.2056 21.4907 28.5039H23.4907ZM23.4907 31.1165V28.5039H21.4907V31.1165H23.4907Z" fill="#FEFEFE"/>
</svg>
