<svg width="279" height="49" viewBox="0 0 279 49" fill="none" xmlns="http://www.w3.org/2000/svg">
<path d="M36.8906 18.2031C36.4375 18.5938 35.7812 19.1641 34.9219 19.9141C33.3281 21.3203 31.2656 23.1016 28.7344 25.2578C26.2031 27.4141 23.4766 29.6328 20.5547 31.9141C17.6484 34.2109 14.8281 36.2578 12.0938 38.0547C9.35938 39.8672 6.98438 41.125 4.96875 41.8281C2.96875 42.5312 1.60938 42.3828 0.890625 41.3828C0.296875 40.3984 0.210938 38.9844 0.632812 37.1406C1.05469 35.2969 1.85156 33.2812 3.02344 31.0938C4.19531 28.9062 5.61719 26.8047 7.28906 24.7891C8.97656 22.7734 10.7891 21.1094 12.7266 19.7969C14.6641 18.4688 16.6016 17.75 18.5391 17.6406C20.4766 17.5156 22.2969 18.2656 24 19.8906C24.1875 20.0781 24.2344 20.2812 24.1406 20.5C24.0469 20.7031 23.8984 20.875 23.6953 21.0156C23.4922 21.125 23.2109 21.1094 22.8516 20.9688C22.5078 20.8281 22.2109 20.6406 21.9609 20.4062C21.7266 20.1719 21.6719 19.9609 21.7969 19.7734C19.9844 18.7266 18.0625 18.6172 16.0312 19.4453C14 20.2578 12.0312 21.6406 10.125 23.5938C8.23438 25.5312 6.57031 27.6641 5.13281 29.9922C3.71094 32.3203 2.67969 34.4766 2.03906 36.4609C1.41406 38.4453 1.35938 39.8906 1.875 40.7969C2.39062 41.4844 3.53125 41.4297 5.29688 40.6328C7.0625 39.8359 9.1875 38.5703 11.6719 36.8359C14.1719 35.1016 16.7578 33.1719 19.4297 31.0469C22.1172 28.9375 24.625 26.9062 26.9531 24.9531C29.2969 22.9844 31.2031 21.3672 32.6719 20.1016C32.9688 19.8359 33.2422 19.6016 33.4922 19.3984C34.0703 18.8984 34.2578 18.6328 34.0547 18.6016C33.8672 18.5703 33.4219 18.6484 32.7188 18.8359C32.5156 18.8828 32.2969 18.9297 32.0625 18.9766C31.4375 19.1328 30.8906 19.2656 30.4219 19.375C29.9531 19.4844 29.4844 19.6016 29.0156 19.7266C28.5469 19.8359 28 19.9609 27.375 20.1016C27.3281 20.3047 27.1953 20.4141 26.9766 20.4297C26.7578 20.4453 26.5391 20.3984 26.3203 20.2891C26.1016 20.1641 25.9531 20.0078 25.875 19.8203C25.8125 19.6328 25.8906 19.4453 26.1094 19.2578C26.3438 19.0547 26.8125 18.875 27.5156 18.7188C30.1875 18.0625 32.8672 17.4453 35.5547 16.8672C35.6641 16.8359 35.7734 16.8125 35.8828 16.7969C36.3047 16.7188 36.6094 16.625 36.7969 16.5156C37 16.4062 37.2578 16.2188 37.5703 15.9531C37.5859 15.9375 37.6016 15.9219 37.6172 15.9062C38.3516 15.2969 39.0938 14.6719 39.8438 14.0312C41.7812 12.3906 43.75 10.7656 45.75 9.15625C47.7656 7.54688 49.8047 6.05469 51.8672 4.67969C52.1797 4.47656 52.6328 4.24219 53.2266 3.97656C53.8203 3.69531 54.4219 3.46875 55.0312 3.29688C55.6406 3.125 56.1094 3.09375 56.4375 3.20312C56.7656 3.29688 56.8203 3.61719 56.6016 4.16406C56.2266 4.97656 55.5234 6.20312 54.4922 7.84375C53.4609 9.46875 52.5312 10.8984 51.7031 12.1328C51.3125 12.7578 51.0312 13.1953 50.8594 13.4453C50.8125 13.5234 50.7656 13.5859 50.7188 13.6328C50.6406 13.7266 50.6016 13.7969 50.6016 13.8438C50.6016 13.8906 50.6719 13.9062 50.8125 13.8906C51.2344 13.8125 51.8594 13.7266 52.6875 13.6328C53.5312 13.5234 54.3594 13.4609 55.1719 13.4453C56 13.4297 56.6094 13.5 57 13.6562C57.2188 13.7969 57.3359 13.9375 57.3516 14.0781C57.3828 14.2031 57.3281 14.2969 57.1875 14.3594C57.0625 14.4062 56.8984 14.3828 56.6953 14.2891C56.4297 14.1953 55.8828 14.1953 55.0547 14.2891C54.2266 14.3672 53.3672 14.4766 52.4766 14.6172C51.6016 14.7578 50.9531 14.8672 50.5312 14.9453C50.4844 14.9609 50.4375 14.9688 50.3906 14.9688C50.125 15.0156 49.9219 15.1016 49.7812 15.2266C49.6562 15.3516 49.5391 15.5234 49.4297 15.7422C49.3828 15.7891 49.3438 15.8516 49.3125 15.9297C48.0781 17.8672 46.8359 19.8125 45.5859 21.7656C42.0859 27.1562 38.7188 32.6016 35.4844 38.1016C35.3906 38.3047 35.3359 38.5156 35.3203 38.7344C35.3203 38.9062 35.2891 39.0547 35.2266 39.1797C35.1797 39.3047 35.0625 39.3984 34.875 39.4609C34.7031 39.5234 34.5391 39.4922 34.3828 39.3672C34.2422 39.2422 34.1641 39.0078 34.1484 38.6641C34.1484 38.3359 34.2812 37.8906 34.5469 37.3281C38.4219 30.6719 42.4531 24.1328 46.6406 17.7109C47 17.1484 47.3594 16.5859 47.7188 16.0234C47.8906 15.7734 47.9531 15.6172 47.9062 15.5547C47.8594 15.4922 47.6953 15.4922 47.4141 15.5547C44.5234 16.1328 41.6484 16.7578 38.7891 17.4297C38.4766 17.4922 38.1719 17.5625 37.875 17.6406C37.6562 17.6875 37.4766 17.7578 37.3359 17.8516C37.2109 17.9297 37.0781 18.0391 36.9375 18.1797C36.9219 18.1797 36.9062 18.1875 36.8906 18.2031ZM40.0078 15.5547C39.6797 15.8672 39.6562 15.9922 39.9375 15.9297C40.2031 15.8828 40.4766 15.8281 40.7578 15.7656C43.1641 15.2344 45.6016 14.7578 48.0703 14.3359C48.4609 14.2891 48.7266 14.2109 48.8672 14.1016C49.0078 13.9922 49.1484 13.8047 49.2891 13.5391C49.3516 13.4297 49.4297 13.2969 49.5234 13.1406C49.7734 12.7656 50.1406 12.2109 50.625 11.4766C51.3125 10.4297 52.0391 9.30469 52.8047 8.10156C53.5859 6.89844 54.2031 5.92188 54.6562 5.17188C54.7656 4.9375 54.7578 4.8125 54.6328 4.79688C54.5078 4.76563 54.3125 4.80469 54.0469 4.91406C53.7812 5.02344 53.5 5.15625 53.2031 5.3125C52.9219 5.46875 52.6797 5.61719 52.4766 5.75781C50.5078 7.05469 48.5781 8.46094 46.6875 9.97656C44.8125 11.4922 42.9688 13.0234 41.1562 14.5703C40.7656 14.8984 40.3828 15.2266 40.0078 15.5547ZM55.0622 24.8359C54.3122 25.5859 53.3434 26.5 52.1559 27.5781C50.9684 28.6406 49.7419 29.6562 48.4762 30.625C47.2106 31.5781 46.1012 32.2422 45.1481 32.6172C44.1794 33.0078 43.5544 32.8828 43.2731 32.2422C43.1012 31.6641 43.4059 30.7422 44.1872 29.4766C44.9528 28.2109 45.9841 26.9062 47.2809 25.5625C48.5778 24.2188 49.945 23.125 51.3825 22.2812C52.82 21.4375 54.1247 21.1406 55.2966 21.3906C55.6091 21.4844 55.82 21.5781 55.9294 21.6719C56.0075 21.7188 56.0778 21.7578 56.1403 21.7891C56.2184 21.8047 56.3044 21.7891 56.3981 21.7422C56.4919 21.6797 56.6169 21.5703 56.7731 21.4141C57.3825 20.8516 57.8825 20.3359 58.2731 19.8672C58.6637 19.3984 59.0778 18.7969 59.5153 18.0625C60.8434 15.8281 61.8981 14.1172 62.6794 12.9297C63.7419 11.2891 64.9528 9.71094 66.3122 8.19531C67.6716 6.67969 68.8591 5.50781 69.8747 4.67969C70.1559 4.44531 70.4919 4.27344 70.8825 4.16406C71.2731 4.03906 71.6247 4.02344 71.9372 4.11719C72.2497 4.19531 72.4294 4.42969 72.4762 4.82031C72.4137 5.32031 71.8981 6.28906 70.9294 7.72656C69.4137 9.92969 67.7887 11.9844 66.0544 13.8906C64.3356 15.7812 62.7028 17.4375 61.1559 18.8594C60.5153 19.4844 60.0231 20.0234 59.6794 20.4766C59.3356 20.9141 58.9294 21.5312 58.4606 22.3281C56.8669 24.9688 55.2731 27.5703 53.6794 30.1328C52.1012 32.6953 50.7731 34.8281 49.695 36.5312C48.6325 38.25 48.07 39.1484 48.0075 39.2266C47.8981 39.3984 47.7653 39.5 47.6091 39.5312C47.4684 39.5625 47.3669 39.5234 47.3044 39.4141C47.2419 39.3047 47.2809 39.125 47.4216 38.875C48.3122 37.3281 49.4216 35.3906 50.7497 33.0625C52.7184 29.6094 54.3356 26.8047 55.6012 24.6484C55.9294 24.1328 56.0544 23.8984 55.9762 23.9453C55.8981 23.9922 55.6637 24.2109 55.2731 24.6016C55.2106 24.6797 55.1403 24.7578 55.0622 24.8359ZM64.9997 13.2578C66.7809 11.4141 68.4372 9.38281 69.9684 7.16406C70.3278 6.61719 70.5387 6.25 70.6012 6.0625C70.6637 5.85937 70.6247 5.78125 70.4841 5.82812C70.3591 5.85937 70.1716 5.96875 69.9216 6.15625C69.6872 6.32812 69.445 6.52344 69.195 6.74219C68.945 6.96094 68.7419 7.14844 68.5856 7.30469C67.7575 8.17969 66.8434 9.24219 65.8434 10.4922C64.8591 11.7266 64.0231 12.8672 63.3356 13.9141C62.82 14.7422 62.4997 15.3047 62.3747 15.6016C62.2497 15.8828 62.2653 15.9766 62.4216 15.8828C62.5778 15.7734 62.82 15.5469 63.1481 15.2031C63.4919 14.8594 63.8591 14.4766 64.2497 14.0547C64.4997 13.7734 64.7497 13.5078 64.9997 13.2578ZM55.1325 22.3281C54.0544 22.2031 52.7887 22.6562 51.3356 23.6875C49.8825 24.7031 48.5153 25.8984 47.2341 27.2734C45.9684 28.6328 45.0778 29.7656 44.5622 30.6719C44.3278 31.0938 44.195 31.4062 44.1637 31.6094C44.1169 31.8281 44.2809 31.8359 44.6559 31.6328C45.7809 31.0078 47.3122 29.8906 49.2497 28.2812C51.1872 26.6562 53.195 24.8516 55.2731 22.8672C55.4294 22.7266 55.4997 22.6172 55.4841 22.5391C55.4684 22.4453 55.3512 22.375 55.1325 22.3281ZM63.7181 23.4297C64.5931 23.6172 64.9447 23.9922 64.7728 24.5547C64.6009 25.1172 64.1478 25.7031 63.4134 26.3125C62.6791 26.9219 61.9134 27.3828 61.1166 27.6953C60.3353 27.9922 59.765 27.9766 59.4056 27.6484C59.1556 27.9609 58.8666 28.375 58.5384 28.8906C58.2259 29.3906 58.0462 29.8359 57.9994 30.2266C57.9994 30.8203 58.4056 31.0781 59.2181 31C60.0306 30.9219 60.9994 30.6641 62.1244 30.2266C63.2494 29.7891 64.2806 29.3438 65.2181 28.8906C66.1556 28.4219 66.7494 28.1016 66.9994 27.9297C67.1869 27.8047 67.3587 27.75 67.515 27.7656C67.6869 27.7812 67.7572 27.8672 67.7259 28.0234C67.7103 28.1797 67.5072 28.3984 67.1166 28.6797C66.6478 29.0078 65.8509 29.4766 64.7259 30.0859C63.6166 30.6797 62.4369 31.1953 61.1869 31.6328C59.9369 32.0703 58.8744 32.2188 57.9994 32.0781C57.1244 31.9375 56.7025 31.2969 56.7337 30.1562C56.8119 29.3906 57.2494 28.4766 58.0462 27.4141C58.8431 26.3516 59.765 25.4219 60.8119 24.625C61.8744 23.8125 62.8431 23.4141 63.7181 23.4297ZM63.2494 24.7188C63.1087 24.7656 62.8666 24.8984 62.5228 25.1172C62.1791 25.3203 61.8119 25.5547 61.4212 25.8203C61.0462 26.0859 60.7181 26.3359 60.4369 26.5703C60.1556 26.8047 59.9916 26.9766 59.9447 27.0859C59.8978 27.1953 60.0384 27.1953 60.3666 27.0859C60.8197 26.9141 61.3744 26.6172 62.0306 26.1953C62.6869 25.7578 63.1869 25.3594 63.5306 25C63.6869 24.8281 63.7494 24.7188 63.7181 24.6719C63.7025 24.625 63.5462 24.6406 63.2494 24.7188ZM74.1319 29.9453C74.2569 29.9609 74.4834 29.8125 74.8116 29.5C75.1553 29.1719 75.5537 28.7656 76.0069 28.2812C76.7569 27.4688 77.5303 26.7031 78.3272 25.9844C79.1397 25.2656 79.8194 24.8984 80.3662 24.8828C80.8819 24.9609 81.1709 25.2578 81.2334 25.7734C81.3116 26.2734 81.3194 26.8281 81.2569 27.4375C81.21 27.8281 81.1866 28.1875 81.1866 28.5156C81.2022 28.8281 81.2803 29.0547 81.4209 29.1953C81.6866 29.4609 82.7022 29.0703 84.4678 28.0234C84.6866 27.8984 84.8584 27.8594 84.9834 27.9062C85.1241 27.9531 85.1787 28.0469 85.1475 28.1875C85.1319 28.3281 84.9912 28.4766 84.7256 28.6328C83.5694 29.3516 82.6787 29.8125 82.0537 30.0156C81.4287 30.2031 80.9444 30.1406 80.6006 29.8281C80.0225 29.2656 79.8116 28.2734 79.9678 26.8516C79.9834 26.5234 79.9444 26.3672 79.8506 26.3828C79.7725 26.3828 79.5928 26.5 79.3116 26.7344C79.2803 26.7656 79.2491 26.7891 79.2178 26.8047C78.7491 27.1953 78.2178 27.6797 77.6241 28.2578C76.8897 28.9766 76.1787 29.6094 75.4912 30.1562C74.8194 30.6875 74.2803 30.8906 73.8741 30.7656C73.3272 30.5312 73.0459 30.0859 73.0303 29.4297C73.0147 28.7734 73.1319 28.0625 73.3819 27.2969C73.6475 26.5156 73.9131 25.8203 74.1787 25.2109C74.3037 24.8984 74.4053 24.6406 74.4834 24.4375C74.5928 24.0469 74.4053 24 73.9209 24.2969C73.4366 24.5938 72.8037 25.0703 72.0225 25.7266C71.2412 26.3672 70.46 27.0391 69.6787 27.7422C68.9131 28.4297 68.2959 28.9844 67.8272 29.4062C67.5616 29.6406 67.3975 29.7969 67.335 29.875C67.2569 29.9375 67.1397 30.0312 66.9834 30.1562C66.6866 30.4375 66.3116 30.7656 65.8584 31.1406C65.4053 31.5312 64.9678 31.8594 64.5459 32.125C64.1241 32.3906 63.8037 32.4844 63.585 32.4062C63.1162 32.1562 63.0616 31.6641 63.4209 30.9297C64.3584 29.0234 65.4366 27.2422 66.6553 25.5859C67.2803 24.6953 67.8819 23.7969 68.46 22.8906C68.4756 22.8594 68.4834 22.8359 68.4834 22.8203C68.4834 22.8047 68.4678 22.7812 68.4366 22.75C68.4366 22.75 68.4287 22.7422 68.4131 22.7266C68.3037 22.6172 68.2647 22.5 68.2959 22.375C68.3272 22.25 68.4053 22.1172 68.5303 21.9766C68.6084 21.8984 68.7491 21.7891 68.9522 21.6484C69.1709 21.5078 69.3897 21.4141 69.6084 21.3672C69.8272 21.3047 69.9834 21.3516 70.0772 21.5078C70.1709 21.6641 70.1319 21.9922 69.96 22.4922C68.9912 24.2266 67.8897 25.9766 66.6553 27.7422C66.3741 28.1641 66.1006 28.5781 65.835 28.9844C65.46 29.5469 65.3194 29.8125 65.4131 29.7812C65.5069 29.75 65.7569 29.5547 66.1631 29.1953C66.2725 29.1016 66.3819 29.0078 66.4912 28.9141C67.5381 27.9922 68.6319 27.0625 69.7725 26.125C70.9287 25.1719 71.9834 24.3984 72.9366 23.8047C73.8897 23.1953 74.6006 22.9531 75.0694 23.0781C75.71 23.375 75.8272 24.125 75.4209 25.3281C75.3897 25.4062 75.335 25.5469 75.2569 25.75C75.1162 26.1719 74.9287 26.7031 74.6944 27.3438C74.4756 27.9844 74.2959 28.5703 74.1553 29.1016C74.0303 29.6172 74.0225 29.8984 74.1319 29.9453ZM86.655 31.4219C85.5612 32.4844 84.53 32.875 83.5612 32.5938C82.6081 32.3125 82.1472 31.4844 82.1784 30.1094C82.2097 28.7188 83.1862 26.9062 85.1081 24.6719C85.8425 23.875 86.4284 23.4141 86.8659 23.2891C87.2253 23.1641 87.4987 23.1797 87.6862 23.3359C87.8737 23.4766 87.8816 23.7656 87.7097 24.2031C87.3816 24.5469 87.1159 24.7578 86.9128 24.8359C86.7097 24.9141 86.5456 24.9453 86.4206 24.9297C86.3581 24.9297 86.2956 24.9375 86.2331 24.9531C86.1862 24.9531 86.1394 24.9844 86.0925 25.0469C84.6081 26.8125 83.7019 28.2344 83.3737 29.3125C83.0612 30.3906 83.1081 31.1172 83.5144 31.4922C83.9206 31.8828 84.4675 31.8984 85.155 31.5391C85.4675 31.3516 85.8191 31 86.2097 30.4844C86.6003 29.9688 86.9206 29.4609 87.1706 28.9609C87.2175 28.8828 87.2566 28.8203 87.2878 28.7734C87.3347 28.7109 87.3581 28.6562 87.3581 28.6094C87.3581 28.5625 87.3191 28.5078 87.2409 28.4453C86.9597 28.1641 86.7175 27.7969 86.5144 27.3438C86.3112 26.875 86.2722 26.4531 86.3972 26.0781C86.5222 25.8281 86.7566 25.7188 87.1003 25.75C87.4441 25.7812 87.7722 25.9609 88.0847 26.2891C88.3972 26.6172 88.5612 27.1094 88.5769 27.7656C88.6081 28.2344 88.7722 28.5625 89.0691 28.75C89.3659 28.9219 89.6941 28.9844 90.0534 28.9375C90.4128 28.875 90.7097 28.7344 90.9441 28.5156C91.1472 28.3281 91.2878 28.2812 91.3659 28.375C91.4597 28.4531 91.4519 28.5938 91.3425 28.7969C91.2331 29 90.9909 29.1875 90.6159 29.3594C90.0222 29.5938 89.5612 29.6797 89.2331 29.6172C88.9206 29.5547 88.6862 29.4688 88.53 29.3594C88.4206 29.2656 88.3191 29.2266 88.2253 29.2422C88.1316 29.2422 88.0378 29.3359 87.9441 29.5234C87.7878 29.8047 87.5847 30.1328 87.3347 30.5078C87.1003 30.8828 86.8737 31.1875 86.655 31.4219ZM79.7719 44.7578C79.6 44.6797 79.5297 44.5156 79.5609 44.2656C79.5766 44.0156 79.7484 43.5938 80.0766 43C80.3891 42.4062 80.8969 41.5391 81.6 40.3984C82.2875 39.2578 83.2094 37.75 84.3656 35.875C85.6781 33.7812 87.35 31.0938 89.3812 27.8125C89.9125 26.8125 90.9984 24.9375 92.6391 22.1875C94.2797 19.4219 96.1078 16.4375 98.1234 13.2344C100.139 10.0156 101.975 7.21875 103.631 4.84375C105.303 2.45312 106.444 1.11719 107.053 0.835938C108.006 0.554688 108.475 0.789062 108.459 1.53906C108.459 2.27344 108.194 3.22656 107.662 4.39844C107.147 5.55469 106.592 6.64844 105.998 7.67969C105.42 8.69531 105.037 9.35156 104.85 9.64844C104.834 9.66406 104.827 9.67969 104.827 9.69531C102.686 13.1484 100.319 16.6172 97.725 20.1016C95.1469 23.5859 93.1625 25.9219 91.7719 27.1094C91.5062 27.2969 91.3266 27.4141 91.2328 27.4609C91.1547 27.5078 91.0844 27.5547 91.0219 27.6016C90.975 27.6484 90.9125 27.7266 90.8344 27.8359C90.7562 27.9453 90.6469 28.1172 90.5062 28.3516L81.2016 43.5156C81.2484 43.5156 81.2406 43.5938 81.1781 43.75C81.1 43.9219 80.9906 44.1016 80.85 44.2891C80.7094 44.4922 80.5453 44.6406 80.3578 44.7344C80.1547 44.8438 79.9594 44.8516 79.7719 44.7578ZM93.1781 24.0391C92.9594 24.3828 92.85 24.5781 92.85 24.625C92.8656 24.6719 93.0141 24.5234 93.2953 24.1797C94.8422 22.2109 96.5687 19.8438 98.475 17.0781C100.381 14.3125 102.139 11.6328 103.748 9.03906C105.67 5.85156 106.78 3.79687 107.077 2.875C107.389 1.95313 106.991 2.21875 105.881 3.67188C104.319 5.82812 102.78 8.13281 101.264 10.5859C99.7484 13.0391 98.2641 15.5078 96.8109 17.9922C95.5766 20.0859 94.3656 22.1016 93.1781 24.0391ZM106.779 27.8125C107.201 27.5938 107.451 27.5781 107.529 27.7656C107.607 27.9531 107.459 28.1797 107.084 28.4453C106.49 28.8047 105.725 29.1562 104.787 29.5C103.865 29.8281 103.037 29.9297 102.303 29.8047C101.568 29.6641 101.186 29.0703 101.154 28.0234V27.9062C101.17 27.6875 101.154 27.5781 101.107 27.5781C101.061 27.5625 100.928 27.625 100.709 27.7656C98.2872 29.3438 96.5059 30.3281 95.3653 30.7188C94.2403 31.1094 93.5762 31.125 93.3731 30.7656C93.1231 30.2656 93.4356 29.4922 94.3106 28.4453C95.1856 27.3828 96.3106 26.375 97.6856 25.4219C99.0762 24.4688 100.404 23.8984 101.67 23.7109C102.936 23.5078 103.826 24.0078 104.342 25.2109C104.389 25.3672 104.365 25.5078 104.272 25.6328C104.178 25.7578 104.053 25.8438 103.897 25.8906C103.74 25.9375 103.561 25.9062 103.357 25.7969C103.17 25.6875 103.037 25.5547 102.959 25.3984C102.959 25.3672 102.967 25.3359 102.982 25.3047C102.998 25.2734 103.014 25.2422 103.029 25.2109C103.045 25.1797 103.061 25.1484 103.076 25.1172C103.092 25.0859 103.092 25.0547 103.076 25.0234C102.686 24.4922 102.014 24.4141 101.061 24.7891C100.107 25.1641 99.0997 25.75 98.0372 26.5469C96.9747 27.3438 96.0762 28.1016 95.3419 28.8203C94.6075 29.5234 94.2637 29.9531 94.3106 30.1094C94.3731 30.2656 94.9903 30.0078 96.1622 29.3359C97.3341 28.6641 99.2559 27.4062 101.928 25.5625C102.068 25.4844 102.209 25.4609 102.35 25.4922C102.506 25.5078 102.631 25.5859 102.725 25.7266C102.834 25.9141 102.842 26.1016 102.748 26.2891C102.154 27.5703 102.084 28.3594 102.537 28.6562C103.006 28.9531 103.67 28.9766 104.529 28.7266C105.404 28.4766 106.154 28.1719 106.779 27.8125ZM118.56 26.5703C117.669 26.1172 117.037 25.4297 116.662 24.5078C116.177 23.0547 116.466 21.3594 117.529 19.4219C118.607 17.4844 120.13 15.5156 122.099 13.5156C124.068 11.5156 126.169 9.71094 128.404 8.10156C130.654 6.47656 132.716 5.27344 134.591 4.49219C136.466 3.69531 137.849 3.53125 138.74 4C139.427 4.48438 139.685 5.21875 139.513 6.20312C139.357 7.1875 139.021 8.17188 138.505 9.15625C138.005 10.1406 137.599 10.8828 137.287 11.3828L128.708 25.3516C128.365 25.9297 128.06 26.4375 127.794 26.875C126.232 29.3438 126.529 29.1562 128.685 26.3125C128.81 26.1562 128.935 26 129.06 25.8438C129.81 24.8594 131.037 23.3125 132.74 21.2031C134.458 19.0938 136.341 16.8984 138.388 14.6172C140.451 12.3203 142.365 10.4219 144.13 8.92188C145.912 7.40625 147.232 6.76562 148.091 7C148.81 7.32812 149.138 8.07812 149.076 9.25C149.029 10.4062 148.763 11.7656 148.279 13.3281C147.81 14.8906 147.302 16.4219 146.755 17.9219C146.255 19.3281 145.865 20.5156 145.583 21.4844C145.318 22.4375 145.302 22.9844 145.537 23.125C146.146 23.25 147.427 22.6094 149.38 21.2031C151.333 19.7812 153.497 18.0703 155.872 16.0703C158.263 14.0703 160.412 12.2422 162.318 10.5859C164.037 9.10156 165.201 8.11719 165.81 7.63281C165.857 7.58594 165.919 7.53906 165.997 7.49219C166.341 7.21094 166.81 6.86719 167.404 6.46094C168.013 6.03906 168.615 5.69531 169.208 5.42969C169.818 5.14844 170.287 5.07812 170.615 5.21875C171.099 5.48437 171.24 6.02344 171.037 6.83594C170.849 7.64844 170.529 8.5 170.076 9.39062C169.622 10.2812 169.263 10.9453 168.997 11.3828C168.951 11.4453 168.919 11.5 168.904 11.5469C167.622 13.7031 165.615 16.7969 162.88 20.8281C161.115 23.4375 159.357 26.0859 157.607 28.7734C155.872 31.4453 154.404 33.8359 153.201 35.9453C151.997 38.0547 151.333 39.5781 151.208 40.5156C151.177 40.9062 151.255 41.1094 151.443 41.125C151.63 41.1406 151.865 41.0938 152.146 40.9844C152.177 40.9688 152.216 40.9609 152.263 40.9609C152.482 40.8828 152.654 40.8984 152.779 41.0078C152.919 41.1172 152.966 41.25 152.919 41.4062C152.888 41.5781 152.724 41.7031 152.427 41.7812C152.13 41.8906 151.794 41.9609 151.419 41.9922C151.044 42.0234 150.724 41.9219 150.458 41.6875C149.99 41.0938 150.169 39.8125 150.997 37.8438C151.841 35.8906 153.06 33.5859 154.654 30.9297C156.247 28.2578 157.935 25.5781 159.716 22.8906C161.497 20.2031 163.083 17.8438 164.474 15.8125C165.646 14.1094 166.49 12.8516 167.005 12.0391C167.021 12.0234 167.037 12 167.052 11.9688C167.177 11.7812 167.404 11.4219 167.732 10.8906C168.06 10.3594 168.396 9.78125 168.74 9.15625C169.099 8.51562 169.38 7.95312 169.583 7.46875C169.802 6.98437 169.857 6.70312 169.747 6.625C169.622 6.57812 169.365 6.67188 168.974 6.90625C168.599 7.125 168.177 7.40625 167.708 7.75C167.255 8.07812 166.841 8.39062 166.466 8.6875C166.107 8.98438 165.872 9.17969 165.763 9.27344C165.31 9.64844 164.599 10.2734 163.63 11.1484C162.333 12.2891 160.787 13.625 158.99 15.1562C157.193 16.6875 155.357 18.1719 153.482 19.6094C151.622 21.0469 149.943 22.1953 148.443 23.0547C146.943 23.9141 145.841 24.2344 145.138 24.0156C144.544 23.75 144.263 23.1562 144.294 22.2344C144.341 21.3125 144.568 20.2109 144.974 18.9297C145.38 17.6484 145.841 16.3359 146.357 14.9922C147.029 13.2891 147.537 11.7969 147.88 10.5156C148.224 9.23438 148.138 8.46094 147.622 8.19531C147.076 8.03906 146.138 8.5625 144.81 9.76562C143.482 10.9531 141.958 12.5078 140.24 14.4297C138.537 16.3516 136.849 18.3359 135.177 20.3828C133.505 22.4297 132.044 24.2344 130.794 25.7969C129.826 27.0156 129.099 27.9141 128.615 28.4922C128.458 28.6797 128.162 29.0078 127.724 29.4766C127.302 29.9453 126.857 30.3594 126.388 30.7188C125.935 31.0781 125.591 31.2031 125.357 31.0938C125.013 30.8281 124.974 30.2891 125.24 29.4766C125.521 28.6484 125.896 27.7891 126.365 26.8984C126.833 26.0078 127.208 25.3359 127.49 24.8828C127.537 24.8047 127.576 24.7422 127.607 24.6953L136.185 10.7266C136.357 10.4609 136.669 9.89844 137.122 9.03906C137.591 8.17969 137.974 7.32031 138.271 6.46094C138.568 5.58594 138.544 5.00781 138.201 4.72656C137.544 4.39844 136.372 4.64844 134.685 5.47656C133.013 6.28906 131.138 7.47656 129.06 9.03906C126.982 10.6016 125.013 12.3203 123.154 14.1953C121.294 16.0703 119.849 17.8906 118.818 19.6562C117.802 21.4219 117.505 22.9141 117.927 24.1328C117.943 24.1797 117.974 24.25 118.021 24.3438C118.068 24.4375 118.115 24.5234 118.162 24.6016C118.224 24.6797 118.287 24.7109 118.349 24.6953C118.474 24.6328 118.599 24.6172 118.724 24.6484C118.849 24.6797 118.958 24.7422 119.052 24.8359C119.552 25.4297 119.724 25.9297 119.568 26.3359C119.412 26.7422 119.076 26.8203 118.56 26.5703ZM163.216 33.1094C162.966 33.1719 162.771 33.125 162.63 32.9688C162.505 32.8281 162.435 32.6406 162.419 32.4062C162.403 32.1875 162.435 31.9844 162.513 31.7969C162.7 31.4688 162.958 31.3203 163.286 31.3516C163.63 31.3984 163.896 31.5703 164.083 31.8672C164.161 32.0234 164.177 32.1797 164.13 32.3359C164.083 32.4922 163.989 32.6172 163.849 32.7109C163.724 32.7734 163.607 32.8516 163.497 32.9453C163.372 33.0234 163.278 33.0781 163.216 33.1094ZM212.286 18.2031C211.833 18.5938 211.176 19.1641 210.317 19.9141C208.723 21.3203 206.661 23.1016 204.129 25.2578C201.598 27.4141 198.872 29.6328 195.95 31.9141C193.043 34.2109 190.223 36.2578 187.489 38.0547C184.754 39.8672 182.379 41.125 180.364 41.8281C178.364 42.5312 177.004 42.3828 176.286 41.3828C175.692 40.3984 175.606 38.9844 176.028 37.1406C176.45 35.2969 177.247 33.2812 178.418 31.0938C179.59 28.9062 181.012 26.8047 182.684 24.7891C184.372 22.7734 186.184 21.1094 188.122 19.7969C190.059 18.4688 191.997 17.75 193.934 17.6406C195.872 17.5156 197.692 18.2656 199.395 19.8906C199.583 20.0781 199.629 20.2812 199.536 20.5C199.442 20.7031 199.293 20.875 199.09 21.0156C198.887 21.125 198.606 21.1094 198.247 20.9688C197.903 20.8281 197.606 20.6406 197.356 20.4062C197.122 20.1719 197.067 19.9609 197.192 19.7734C195.379 18.7266 193.458 18.6172 191.426 19.4453C189.395 20.2578 187.426 21.6406 185.52 23.5938C183.629 25.5312 181.965 27.6641 180.528 29.9922C179.106 32.3203 178.075 34.4766 177.434 36.4609C176.809 38.4453 176.754 39.8906 177.27 40.7969C177.786 41.4844 178.926 41.4297 180.692 40.6328C182.458 39.8359 184.583 38.5703 187.067 36.8359C189.567 35.1016 192.153 33.1719 194.825 31.0469C197.512 28.9375 200.02 26.9062 202.348 24.9531C204.692 22.9844 206.598 21.3672 208.067 20.1016C208.364 19.8359 208.637 19.6016 208.887 19.3984C209.465 18.8984 209.653 18.6328 209.45 18.6016C209.262 18.5703 208.817 18.6484 208.114 18.8359C207.911 18.8828 207.692 18.9297 207.458 18.9766C206.833 19.1328 206.286 19.2656 205.817 19.375C205.348 19.4844 204.879 19.6016 204.411 19.7266C203.942 19.8359 203.395 19.9609 202.77 20.1016C202.723 20.3047 202.59 20.4141 202.372 20.4297C202.153 20.4453 201.934 20.3984 201.715 20.2891C201.497 20.1641 201.348 20.0078 201.27 19.8203C201.208 19.6328 201.286 19.4453 201.504 19.2578C201.739 19.0547 202.208 18.875 202.911 18.7188C205.583 18.0625 208.262 17.4453 210.95 16.8672C211.059 16.8359 211.168 16.8125 211.278 16.7969C211.7 16.7188 212.004 16.625 212.192 16.5156C212.395 16.4062 212.653 16.2188 212.965 15.9531C212.981 15.9375 212.997 15.9219 213.012 15.9062C213.747 15.2969 214.489 14.6719 215.239 14.0312C217.176 12.3906 219.145 10.7656 221.145 9.15625C223.161 7.54688 225.2 6.05469 227.262 4.67969C227.575 4.47656 228.028 4.24219 228.622 3.97656C229.215 3.69531 229.817 3.46875 230.426 3.29688C231.036 3.125 231.504 3.09375 231.833 3.20312C232.161 3.29688 232.215 3.61719 231.997 4.16406C231.622 4.97656 230.918 6.20312 229.887 7.84375C228.856 9.46875 227.926 10.8984 227.098 12.1328C226.708 12.7578 226.426 13.1953 226.254 13.4453C226.208 13.5234 226.161 13.5859 226.114 13.6328C226.036 13.7266 225.997 13.7969 225.997 13.8438C225.997 13.8906 226.067 13.9062 226.208 13.8906C226.629 13.8125 227.254 13.7266 228.083 13.6328C228.926 13.5234 229.754 13.4609 230.567 13.4453C231.395 13.4297 232.004 13.5 232.395 13.6562C232.614 13.7969 232.731 13.9375 232.747 14.0781C232.778 14.2031 232.723 14.2969 232.583 14.3594C232.458 14.4062 232.293 14.3828 232.09 14.2891C231.825 14.1953 231.278 14.1953 230.45 14.2891C229.622 14.3672 228.762 14.4766 227.872 14.6172C226.997 14.7578 226.348 14.8672 225.926 14.9453C225.879 14.9609 225.833 14.9688 225.786 14.9688C225.52 15.0156 225.317 15.1016 225.176 15.2266C225.051 15.3516 224.934 15.5234 224.825 15.7422C224.778 15.7891 224.739 15.8516 224.708 15.9297C223.473 17.8672 222.231 19.8125 220.981 21.7656C217.481 27.1562 214.114 32.6016 210.879 38.1016C210.786 38.3047 210.731 38.5156 210.715 38.7344C210.715 38.9062 210.684 39.0547 210.622 39.1797C210.575 39.3047 210.458 39.3984 210.27 39.4609C210.098 39.5234 209.934 39.4922 209.778 39.3672C209.637 39.2422 209.559 39.0078 209.543 38.6641C209.543 38.3359 209.676 37.8906 209.942 37.3281C213.817 30.6719 217.848 24.1328 222.036 17.7109C222.395 17.1484 222.754 16.5859 223.114 16.0234C223.286 15.7734 223.348 15.6172 223.301 15.5547C223.254 15.4922 223.09 15.4922 222.809 15.5547C219.918 16.1328 217.043 16.7578 214.184 17.4297C213.872 17.4922 213.567 17.5625 213.27 17.6406C213.051 17.6875 212.872 17.7578 212.731 17.8516C212.606 17.9297 212.473 18.0391 212.333 18.1797C212.317 18.1797 212.301 18.1875 212.286 18.2031ZM215.403 15.5547C215.075 15.8672 215.051 15.9922 215.333 15.9297C215.598 15.8828 215.872 15.8281 216.153 15.7656C218.559 15.2344 220.997 14.7578 223.465 14.3359C223.856 14.2891 224.122 14.2109 224.262 14.1016C224.403 13.9922 224.543 13.8047 224.684 13.5391C224.747 13.4297 224.825 13.2969 224.918 13.1406C225.168 12.7656 225.536 12.2109 226.02 11.4766C226.708 10.4297 227.434 9.30469 228.2 8.10156C228.981 6.89844 229.598 5.92188 230.051 5.17188C230.161 4.9375 230.153 4.8125 230.028 4.79688C229.903 4.76563 229.708 4.80469 229.442 4.91406C229.176 5.02344 228.895 5.15625 228.598 5.3125C228.317 5.46875 228.075 5.61719 227.872 5.75781C225.903 7.05469 223.973 8.46094 222.083 9.97656C220.208 11.4922 218.364 13.0234 216.551 14.5703C216.161 14.8984 215.778 15.2266 215.403 15.5547ZM230.457 24.8359C229.707 25.5859 228.738 26.5 227.551 27.5781C226.363 28.6406 225.137 29.6562 223.871 30.625C222.606 31.5781 221.496 32.2422 220.543 32.6172C219.574 33.0078 218.949 32.8828 218.668 32.2422C218.496 31.6641 218.801 30.7422 219.582 29.4766C220.348 28.2109 221.379 26.9062 222.676 25.5625C223.973 24.2188 225.34 23.125 226.777 22.2812C228.215 21.4375 229.52 21.1406 230.692 21.3906C231.004 21.4844 231.215 21.5781 231.324 21.6719C231.402 21.7188 231.473 21.7578 231.535 21.7891C231.613 21.8047 231.699 21.7891 231.793 21.7422C231.887 21.6797 232.012 21.5703 232.168 21.4141C232.777 20.8516 233.277 20.3359 233.668 19.8672C234.059 19.3984 234.473 18.7969 234.91 18.0625C236.238 15.8281 237.293 14.1172 238.074 12.9297C239.137 11.2891 240.348 9.71094 241.707 8.19531C243.067 6.67969 244.254 5.50781 245.27 4.67969C245.551 4.44531 245.887 4.27344 246.277 4.16406C246.668 4.03906 247.02 4.02344 247.332 4.11719C247.645 4.19531 247.824 4.42969 247.871 4.82031C247.809 5.32031 247.293 6.28906 246.324 7.72656C244.809 9.92969 243.184 11.9844 241.449 13.8906C239.731 15.7812 238.098 17.4375 236.551 18.8594C235.91 19.4844 235.418 20.0234 235.074 20.4766C234.731 20.9141 234.324 21.5312 233.856 22.3281C232.262 24.9688 230.668 27.5703 229.074 30.1328C227.496 32.6953 226.168 34.8281 225.09 36.5312C224.027 38.25 223.465 39.1484 223.402 39.2266C223.293 39.3984 223.16 39.5 223.004 39.5312C222.863 39.5625 222.762 39.5234 222.699 39.4141C222.637 39.3047 222.676 39.125 222.817 38.875C223.707 37.3281 224.817 35.3906 226.145 33.0625C228.113 29.6094 229.731 26.8047 230.996 24.6484C231.324 24.1328 231.449 23.8984 231.371 23.9453C231.293 23.9922 231.059 24.2109 230.668 24.6016C230.606 24.6797 230.535 24.7578 230.457 24.8359ZM240.395 13.2578C242.176 11.4141 243.832 9.38281 245.363 7.16406C245.723 6.61719 245.934 6.25 245.996 6.0625C246.059 5.85937 246.02 5.78125 245.879 5.82812C245.754 5.85937 245.567 5.96875 245.317 6.15625C245.082 6.32812 244.84 6.52344 244.59 6.74219C244.34 6.96094 244.137 7.14844 243.981 7.30469C243.152 8.17969 242.238 9.24219 241.238 10.4922C240.254 11.7266 239.418 12.8672 238.731 13.9141C238.215 14.7422 237.895 15.3047 237.77 15.6016C237.645 15.8828 237.66 15.9766 237.817 15.8828C237.973 15.7734 238.215 15.5469 238.543 15.2031C238.887 14.8594 239.254 14.4766 239.645 14.0547C239.895 13.7734 240.145 13.5078 240.395 13.2578ZM230.527 22.3281C229.449 22.2031 228.184 22.6562 226.731 23.6875C225.277 24.7031 223.91 25.8984 222.629 27.2734C221.363 28.6328 220.473 29.7656 219.957 30.6719C219.723 31.0938 219.59 31.4062 219.559 31.6094C219.512 31.8281 219.676 31.8359 220.051 31.6328C221.176 31.0078 222.707 29.8906 224.645 28.2812C226.582 26.6562 228.59 24.8516 230.668 22.8672C230.824 22.7266 230.895 22.6172 230.879 22.5391C230.863 22.4453 230.746 22.375 230.527 22.3281ZM239.113 23.4297C239.988 23.6172 240.34 23.9922 240.168 24.5547C239.996 25.1172 239.543 25.7031 238.808 26.3125C238.074 26.9219 237.308 27.3828 236.512 27.6953C235.73 27.9922 235.16 27.9766 234.801 27.6484C234.551 27.9609 234.262 28.375 233.933 28.8906C233.621 29.3906 233.441 29.8359 233.394 30.2266C233.394 30.8203 233.801 31.0781 234.613 31C235.426 30.9219 236.394 30.6641 237.519 30.2266C238.644 29.7891 239.676 29.3438 240.613 28.8906C241.551 28.4219 242.144 28.1016 242.394 27.9297C242.582 27.8047 242.754 27.75 242.91 27.7656C243.082 27.7812 243.152 27.8672 243.121 28.0234C243.105 28.1797 242.902 28.3984 242.512 28.6797C242.043 29.0078 241.246 29.4766 240.121 30.0859C239.012 30.6797 237.832 31.1953 236.582 31.6328C235.332 32.0703 234.269 32.2188 233.394 32.0781C232.519 31.9375 232.098 31.2969 232.129 30.1562C232.207 29.3906 232.644 28.4766 233.441 27.4141C234.238 26.3516 235.16 25.4219 236.207 24.625C237.269 23.8125 238.238 23.4141 239.113 23.4297ZM238.644 24.7188C238.504 24.7656 238.262 24.8984 237.918 25.1172C237.574 25.3203 237.207 25.5547 236.816 25.8203C236.441 26.0859 236.113 26.3359 235.832 26.5703C235.551 26.8047 235.387 26.9766 235.34 27.0859C235.293 27.1953 235.433 27.1953 235.762 27.0859C236.215 26.9141 236.769 26.6172 237.426 26.1953C238.082 25.7578 238.582 25.3594 238.926 25C239.082 24.8281 239.144 24.7188 239.113 24.6719C239.098 24.625 238.941 24.6406 238.644 24.7188ZM239.003 31.1406C239.316 30.375 239.792 29.4453 240.433 28.3516C241.058 27.2578 241.667 26.2109 242.261 25.2109C242.589 24.6797 242.871 24.2188 243.105 23.8281C243.011 23.7031 242.964 23.5703 242.964 23.4297C242.964 23.2891 243.011 23.1641 243.105 23.0547C243.511 22.6172 243.808 22.375 243.996 22.3281L244.042 22.3047C244.183 22.2578 244.308 22.2578 244.417 22.3047C244.652 22.3828 244.8 22.5312 244.863 22.75C244.863 22.7656 244.863 22.7891 244.863 22.8203C244.863 22.8359 244.863 22.8516 244.863 22.8672C244.863 23.0078 244.824 23.1484 244.746 23.2891C244.167 24.2266 243.519 25.2969 242.8 26.5C242.097 27.6875 241.472 28.7656 240.925 29.7344C241.3 29.375 241.902 28.8594 242.73 28.1875C243.574 27.5 244.41 26.8672 245.238 26.2891C246.082 25.6953 246.683 25.3828 247.042 25.3516C247.605 25.3672 247.925 25.5938 248.003 26.0312C248.082 26.4531 248.082 26.9297 248.003 27.4609C247.957 27.8672 247.949 28.2188 247.98 28.5156C248.011 28.7969 248.167 28.9375 248.449 28.9375C248.746 28.9375 249.246 28.7031 249.949 28.2344C250.152 28.1094 250.292 28.0781 250.371 28.1406C250.464 28.2031 250.496 28.3125 250.464 28.4688C250.433 28.6094 250.347 28.7266 250.207 28.8203C248.8 29.7109 247.871 29.8828 247.417 29.3359C246.964 28.7734 246.847 27.8203 247.066 26.4766C246.738 26.5078 246.246 26.7891 245.589 27.3203C244.933 27.8359 244.222 28.4375 243.457 29.125C242.785 29.7188 242.144 30.2656 241.535 30.7656C240.925 31.2656 240.41 31.625 239.988 31.8438C239.675 31.9844 239.41 31.9844 239.191 31.8438C238.972 31.7031 238.91 31.4688 239.003 31.1406ZM253.87 20.2188C254.292 20.25 254.488 20.3828 254.456 20.6172C254.425 20.8359 254.269 21.0625 253.988 21.2969C253.722 21.5156 253.433 21.6641 253.12 21.7422C252.823 21.8047 252.605 21.7031 252.464 21.4375C252.433 21.3594 252.441 21.2891 252.488 21.2266C252.55 21.1484 252.628 21.0859 252.722 21.0391C252.831 20.9766 252.925 20.9219 253.003 20.875C253.066 20.8594 253.113 20.8438 253.144 20.8281C253.175 20.8125 253.191 20.7969 253.191 20.7812C253.206 20.6094 253.277 20.4688 253.402 20.3594C253.527 20.25 253.683 20.2031 253.87 20.2188ZM248.644 31.3516C248.034 31.3516 247.675 31.1562 247.566 30.7656C247.456 30.375 247.511 29.8828 247.73 29.2891C247.933 28.6797 248.222 28.0469 248.597 27.3906C248.972 26.7188 249.347 26.1094 249.722 25.5625C250.097 25 250.394 24.5703 250.613 24.2734C250.675 24.1641 250.73 24.0859 250.777 24.0391C250.683 23.7891 250.769 23.5156 251.034 23.2188C251.3 22.9062 251.613 22.6797 251.972 22.5391C252.331 22.3828 252.589 22.4062 252.745 22.6094C252.855 22.7812 252.878 22.9453 252.816 23.1016C252.753 23.2578 252.667 23.4062 252.558 23.5469C252.527 23.5781 252.495 23.6172 252.464 23.6641C251.87 24.5078 251.222 25.4531 250.519 26.5C249.831 27.5312 249.316 28.3984 248.972 29.1016C248.706 29.7109 248.87 30.0469 249.464 30.1094C250.073 30.1719 250.855 30.0781 251.808 29.8281C252.777 29.5781 253.659 29.3125 254.456 29.0312C255.269 28.7344 255.753 28.5391 255.909 28.4453C256.081 28.3516 256.214 28.3359 256.308 28.3984C256.417 28.4609 256.464 28.5625 256.448 28.7031C256.433 28.8281 256.323 28.9609 256.12 29.1016C255.105 29.6641 253.777 30.1797 252.136 30.6484C250.511 31.1172 249.347 31.3516 248.644 31.3516ZM258.284 21.3203C258.675 21.1016 259.011 21.125 259.292 21.3906C259.573 21.6406 259.698 21.9531 259.667 22.3281C259.651 22.7031 259.401 22.9688 258.917 23.125C258.37 23.3125 257.792 23.8672 257.182 24.7891C256.573 25.7109 256.042 26.7031 255.589 27.7656C255.151 28.8125 254.893 29.6328 254.815 30.2266C254.737 31.4141 254.956 31.9922 255.472 31.9609C255.987 31.9297 256.862 31.4297 258.097 30.4609C259.331 29.4922 260.698 28.3594 262.198 27.0625C263.682 25.7656 265.081 24.6094 266.393 23.5938C267.706 22.5625 268.69 21.9688 269.347 21.8125C270.222 21.9062 270.643 22.1797 270.612 22.6328C270.581 23.0703 270.401 23.5703 270.073 24.1328C270.026 24.2109 269.979 24.2969 269.932 24.3906C269.307 25.5938 268.589 26.7578 267.776 27.8828C267.448 28.3672 267.128 28.8516 266.815 29.3359C266.425 29.9453 266.042 30.5703 265.667 31.2109C265.401 31.6641 265.128 32.1094 264.847 32.5469C264.8 32.625 264.753 32.7031 264.706 32.7812C264.581 32.9531 264.464 33.1328 264.354 33.3203C264.261 33.5078 264.245 33.6875 264.307 33.8594C264.354 34.1094 264.284 34.3047 264.097 34.4453C263.69 34.7422 263.393 35.0156 263.206 35.2656C263.018 35.5156 262.847 35.7969 262.69 36.1094C262.565 36.3594 262.393 36.6562 262.175 37C262.003 37.2969 261.745 37.7344 261.401 38.3125C260.698 39.5312 259.815 40.9844 258.753 42.6719C257.706 44.375 256.651 45.8516 255.589 47.1016C254.542 48.3516 253.682 48.9219 253.011 48.8125C252.682 48.7188 252.511 48.5078 252.495 48.1797C252.464 47.8672 252.503 47.5312 252.612 47.1719C252.722 46.8125 252.831 46.5078 252.94 46.2578C252.956 46.2109 252.972 46.1641 252.987 46.1172C253.847 44.0547 255.065 42.0547 256.643 40.1172C258.222 38.1797 259.862 36.5 261.565 35.0781C261.909 34.7969 262.167 34.5312 262.339 34.2812C262.526 34.0469 262.722 33.7656 262.925 33.4375C262.972 33.3594 263.018 33.2891 263.065 33.2266L267.729 25.75C268.557 24.4219 268.886 23.6953 268.714 23.5703C268.542 23.4453 268.034 23.7188 267.19 24.3906C266.347 25.0469 265.323 25.8984 264.12 26.9453C262.557 28.2891 261.003 29.5625 259.456 30.7656C257.909 31.9688 256.69 32.6719 255.8 32.875C255.065 33 254.472 32.8359 254.018 32.3828C253.581 31.9453 253.417 31.1016 253.526 29.8516C253.729 28.3203 254.292 26.7812 255.214 25.2344C256.151 23.6875 257.175 22.3828 258.284 21.3203ZM255.987 44.3594C256.003 44.3281 256.042 44.2734 256.104 44.1953C256.307 43.8828 256.628 43.3984 257.065 42.7422C257.503 42.1016 257.948 41.4219 258.401 40.7031C258.87 40 259.245 39.3984 259.526 38.8984C259.807 38.4141 259.893 38.1797 259.784 38.1953C259.643 38.2578 259.315 38.625 258.8 39.2969C258.284 39.9688 257.698 40.7656 257.042 41.6875C256.401 42.6094 255.815 43.4766 255.284 44.2891C254.753 45.1016 254.401 45.6797 254.229 46.0234C253.932 46.7578 253.784 47.2031 253.784 47.3594C253.784 47.5156 253.878 47.4766 254.065 47.2422C254.253 47.0234 254.479 46.7109 254.745 46.3047C255.026 45.9141 255.276 45.5312 255.495 45.1562C255.729 44.7812 255.893 44.5156 255.987 44.3594ZM276.057 20.2188C276.479 20.25 276.674 20.3828 276.643 20.6172C276.612 20.8359 276.456 21.0625 276.174 21.2969C275.909 21.5156 275.62 21.6641 275.307 21.7422C275.01 21.8047 274.792 21.7031 274.651 21.4375C274.62 21.3594 274.628 21.2891 274.674 21.2266C274.737 21.1484 274.815 21.0859 274.909 21.0391C275.018 20.9766 275.112 20.9219 275.19 20.875C275.253 20.8594 275.299 20.8438 275.331 20.8281C275.362 20.8125 275.378 20.7969 275.378 20.7812C275.393 20.6094 275.463 20.4688 275.588 20.3594C275.713 20.25 275.87 20.2031 276.057 20.2188ZM270.831 31.3516C270.221 31.3516 269.862 31.1562 269.753 30.7656C269.643 30.375 269.698 29.8828 269.917 29.2891C270.12 28.6797 270.409 28.0469 270.784 27.3906C271.159 26.7188 271.534 26.1094 271.909 25.5625C272.284 25 272.581 24.5703 272.799 24.2734C272.862 24.1641 272.917 24.0859 272.963 24.0391C272.87 23.7891 272.956 23.5156 273.221 23.2188C273.487 22.9062 273.799 22.6797 274.159 22.5391C274.518 22.3828 274.776 22.4062 274.932 22.6094C275.042 22.7812 275.065 22.9453 275.003 23.1016C274.94 23.2578 274.854 23.4062 274.745 23.5469C274.713 23.5781 274.682 23.6172 274.651 23.6641C274.057 24.5078 273.409 25.4531 272.706 26.5C272.018 27.5312 271.503 28.3984 271.159 29.1016C270.893 29.7109 271.057 30.0469 271.651 30.1094C272.26 30.1719 273.042 30.0781 273.995 29.8281C274.963 29.5781 275.846 29.3125 276.643 29.0312C277.456 28.7344 277.94 28.5391 278.096 28.4453C278.268 28.3516 278.401 28.3359 278.495 28.3984C278.604 28.4609 278.651 28.5625 278.635 28.7031C278.62 28.8281 278.51 28.9609 278.307 29.1016C277.292 29.6641 275.963 30.1797 274.323 30.6484C272.698 31.1172 271.534 31.3516 270.831 31.3516Z" fill="#121212"/>
</svg>
